<svg xmlns="http://www.w3.org/2000/svg" xmlns:xlink="http://www.w3.org/1999/xlink" viewBox="0 0 1205.23 413.97"><g id="Layer_2" data-name="Layer 2"><g id="Layer_1-2" data-name="Layer 1"><image width="488" height="253" transform="translate(813.58 210.93) scale(0.8)" opacity="0.75" xlink:href="../../../OneDrive/Documents/SVG/5F8DFD82.png" style="isolation:isolate"/><path d="M851,417.43c-1.18,0-1.49-.49-1.49-1.72V310c0-.8.31-1.52,1.33-1.52H867.3a1.06,1.06,0,0,1,1.18,1c0-11.28,0,92.37,0,90h44.83c.94,0,1.33.49,1.18,1.23l-2.59,15.37c-.16,1.23-.63,1.4-1.5,1.4Z" transform="translate(-11.9 -56.59)" fill="#04bfbf"/><path d="M954.34,388.52c-.7.41-8.11,30.83-10.28,29H928.15c-1,0-1.36-.49-1-1.53L959,318.4c.64-1.68,1.21-3.29,1.37-8.68,0-.64.32-1.2,1-1.2h22.16c2.4-.42,35.91,106.66,37.09,107.63.16.8,0,1.37-1,1.37h-17.75c-2,1.9-10-28.72-10.63-29Zm32-18c-3.15-11.2-10.72-34.16-13.54-46h-.16c-2.66,11.19-8.7,30.61-13.37,46Z" transform="translate(-11.9 -56.59)" fill="#04bfbf"/><path d="M1036.48,310.08c-2-3.14,24-1.42,31.3-2,44-.31,46.28,35.55,28,50.48,31.71,17.44,13.73,61.91-28.49,59-13,0-23.84-.16-29.86-.32C1034.66,417,1037.42,311.39,1036.48,310.08Zm20.08,42.44c7.87,0,18-.25,25.76.8,3.69-2.81,6.34-6.66,6.34-13.48.74-15.81-19.58-15.19-32.18-14.53Zm-.08,48.18c14.24,1.43,37.24.16,36.27-16.13,0-7.14-3.53-12.68-11.63-14.85-6.5-1.91-17.85-1-24.64-1.2V400.7Z" transform="translate(-11.9 -56.59)" fill="#04bfbf"/><path d="M1129.45,413.56c-2.07-.48-.51-17.8-1-19.35,0-.65.48-1,1.13-.65,11.47,9,46.39,14.35,46.54-4.53,0-6.07-3.72-10.76-15.94-16.84-19.83-7.17-33-20-31.73-34.88-1.28-29.18,37.15-37.47,61-26.87,2-.39.56,16.87,1,17.8,0,.65-.49,1.38-1.38.65-9.93-6.69-42.89-9-41.84,6.88-1.12,7.8,11.06,14.4,22.17,18.78,20.81,9.55,26.55,20,26.55,32.78C1197.82,418.46,1152.66,425.85,1129.45,413.56Z" transform="translate(-11.9 -56.59)" fill="#04bfbf"/><path d="M15.76,63.9H110L106.44,80c-7.07,1-19,2.57-26.69,2.89,1.29,26.69,7.4,98.73,8.68,131.53,12.87-26.05,54.67-112.23,70.11-146.32h20.58c1.61,13.5,18,125.41,20.58,147,9-19.94,51.13-110.95,59.17-131.85-6.75-.64-24.76-2.25-31.19-3.21l3.86-16.08h74L301.32,80c-8,1.28-13.51,2.25-20.26,3.21-12.86,25.41-76.21,155.32-92.94,191.66H163.68c-2.25-23.47-15.75-114.8-19-141.81L76.54,274.85H53.06c-2.25-25.4-16.4-164.65-19.62-192C30.23,82.55,19.29,80.94,11.9,80Z" transform="translate(-11.9 -56.59)" fill="#fefeff"/><path d="M256.23,204.92c-.38-55.28,50.78-86.88,85.37-50.4h2.17l2.9-12h29.81v86.14c.09,10.07,3.2,11.67,9.19,10.17l4.55,28.86c-16.4,7-41.53,2.84-47.16-13.17h-1C306.51,291.28,253.17,262.5,256.23,204.92Zm80.25,23.94V178.49c-19.51-14.85-41.14-8.2-41,26.45,0,24.17,8.17,34.29,21.64,34.29,7.67,0,13.55-2.53,19.35-10.37Z" transform="translate(-11.9 -56.59)" fill="#f2b705"/><path d="M419.19,91.64H353.9c-1.6,0-2.25-1-1.92-2.57l4.18-29.91c.32-1.93,1-2.57,2.89-2.57H518.87c1.93,0,2.9.64,3.22,2.89L525,88.75c.33,1.93-.64,2.89-2.25,2.89h-65V265c0,1.93-1,2.9-2.57,2.9H422.08c-2.25.32-2.89-.64-2.89-2.9Z" transform="translate(-11.9 -56.59)" fill="#fefeff"/><path d="M680.3,267.87c-1.93,0-2.57-.64-2.57-2.57V175.58H588V265c0,1.93-.65,2.9-2.57,2.9H552.31c-2.25,0-2.89-1-2.89-2.9V59.48c0-2.25.64-2.89,2.57-2.89h33.45c1.92,0,2.57.64,2.57,2.57v81.36h89.72V58.84A2,2,0,0,1,680,56.59h34.41c1.61,0,2.25.64,2.25,2.25V265.3c0,1.93-.64,2.57-2.57,2.57Z" transform="translate(-11.9 -56.59)" fill="#fefeff"/><path d="M898,265.3c-.32,2.25-1,2.57-2.89,2.57h-128c-2.25,0-2.89-1-2.89-2.57V59.16c0-1.6.64-2.57,2.57-2.57H890.93c1.93,0,2.57.32,2.89,2.25l3.54,29.91c.32,1.61-.32,2.89-2.25,2.89h-92v51.13h83.61c1.61,0,2.25.33,2.25,2.25v30.56c0,1.6-1,1.92-2.25,1.92H803.14v55.32h97.44c1.93,0,2.57,1,2.25,2.57Z" transform="translate(-11.9 -56.59)" fill="#fefeff"/><path d="M972.29,265c0,2.26-.65,2.9-2.58,2.9H936c-1.93,0-2.58-1-2.58-2.9V59.16c0-2.25,1-2.57,2.58-2.57h33.76c1.93,0,2.58.64,2.58,2.57Z" transform="translate(-11.9 -56.59)" fill="#fefeff"/><path d="M1052,212.23l-17.68,53.07a3.19,3.19,0,0,1-3.54,2.57H998.65c-1.93,0-2.57-1-2.25-3.22l66.25-188.44c1.28-3.22,2.25-6.43,2.89-17.37,0-1.28.64-2.25,1.93-2.25h44.7c1.61,0,1.93.32,2.25,1.93L1188.7,265c.33,1.93,0,2.9-1.93,2.9h-36a3.23,3.23,0,0,1-3.22-1.93l-18.65-53.71Zm66.57-35c-6.75-21.22-21.87-65.92-28.3-88.43H1090c-5.15,21.54-18,59.17-27.66,88.43Z" transform="translate(-11.9 -56.59)" fill="#fefeff"/><path d="M51.56,343.37h3.92l6.34,25.89c.87,3.71,1.69,7.08,2.37,10.67h.34c.8-3.59,1.71-7,2.63-10.67l6.38-25.21h4.4l6.35,25.21c.91,3.71,1.87,7.08,2.67,10.67h.34c.84-3.59,1.62-7,2.43-10.67L96,343.37h3.66l-10.11,40H84.62l-6.23-24.16c-.91-3.55-1.64-7.3-2.61-11.49h-.33c-.85,4.19-1.57,8.06-2.6,11.62l-6.07,24H61.84Z" transform="translate(-11.9 -56.59)" fill="#fff"/><path d="M101.48,343.37h3.92l6.34,25.89c.87,3.71,1.69,7.08,2.37,10.67h.34c.8-3.59,1.72-7,2.63-10.67l6.39-25.21h4.4l6.34,25.21c.91,3.71,1.87,7.08,2.67,10.67h.34c.84-3.59,1.62-7,2.43-10.67l6.28-25.89h3.66l-10.11,40h-4.94l-6.23-24.16c-.91-3.55-1.64-7.3-2.61-11.49h-.33c-.85,4.19-1.57,8.06-2.6,11.62l-6.07,24h-4.94Z" transform="translate(-11.9 -56.59)" fill="#fff"/><path d="M151.41,343.37h3.91l6.34,25.89c.87,3.71,1.7,7.08,2.38,10.67h.33c.8-3.59,1.72-7,2.63-10.67l6.39-25.21h4.4l6.34,25.21c.91,3.71,1.87,7.08,2.68,10.67h.33c.85-3.59,1.63-7,2.44-10.67l6.28-25.89h3.65l-10.1,40h-4.95l-6.23-24.16c-.91-3.55-1.64-7.3-2.6-11.49h-.34c-.84,4.19-1.57,8.06-2.6,11.62l-6.07,24h-4.94Z" transform="translate(-11.9 -56.59)" fill="#fff"/><path d="M220.4,378.89c0-3.43,2.39-5.44,5-5.44s5,2,5,5.44-2.39,5.43-5,5.43S220.4,382.34,220.4,378.89Z" transform="translate(-11.9 -56.59)" fill="#fff"/><path d="M251.25,343.37h3.91l6.34,25.89c.87,3.71,1.7,7.08,2.38,10.67h.33c.81-3.59,1.72-7,2.64-10.67l6.38-25.21h4.4L284,369.26c.92,3.71,1.88,7.08,2.68,10.67H287c.85-3.59,1.63-7,2.44-10.67l6.28-25.89h3.66l-10.11,40h-4.94l-6.24-24.16c-.91-3.55-1.63-7.3-2.6-11.49h-.33c-.85,4.19-1.58,8.06-2.61,11.62l-6.07,24h-4.94Z" transform="translate(-11.9 -56.59)" fill="#fff"/><path d="M307.89,373.39c0-8.95,9-13.18,30.64-15.09-.07-6.58-2.73-12.69-11.88-12.69-6,0-11.86,3.1-15.12,5.43l-1.71-2.72c3.19-2.3,10.13-5.95,17.27-5.95,10.7,0,15.14,6.88,15.14,15.43v25.53h-3.14l-.4-6h-.19c-4.59,3.68-10.78,7-16.68,7C314.67,384.32,307.89,380.87,307.89,373.39Zm30.64.52V361.12c-20.33,1.82-26.85,5.66-26.85,12.07,0,5.73,5.37,7.92,10.76,7.92C327.56,381.11,332.9,378.65,338.53,373.91Z" transform="translate(-11.9 -56.59)" fill="#fff"/><path d="M368.9,368.39V346.58H356.81v-2.85l12.16-.36.49-13.22h3.13v13.22h21.26v3.21H372.59v22.07c0,7.79,2.24,12.44,11.15,12.44A27.71,27.71,0,0,0,394.36,379l1,2.83a31,31,0,0,1-12.16,2.47C372.24,384.32,368.9,377.89,368.9,368.39Z" transform="translate(-11.9 -56.59)" fill="#fff"/><path d="M408.87,323.48h3.7v17.35l-.24,10.48h.19c4.75-5.22,9.61-8.94,16-8.94,9.69,0,14.34,5.24,14.34,16.07v24.89h-3.69v-24.4c0-8.93-3.33-13.23-11.24-13.23-5.67,0-9.58,3-15.33,9v28.63h-3.7Z" transform="translate(-11.9 -56.59)" fill="#fff"/><path d="M456.41,363.39c0-13,9.58-21,20-21,10.92,0,17.87,7,17.87,18.49a19.64,19.64,0,0,1-.21,3.07H458.26v-3.14H492.5l-1.56,1.49c0-11.33-5.9-16.74-14.45-16.74-8.34,0-16.28,6.51-16.28,17.73,0,11.57,8,17.87,17.5,17.87a22.74,22.74,0,0,0,13.41-4.32l1.52,2.8a26,26,0,0,1-15.16,4.7C465.94,384.32,456.41,376.5,456.41,363.39Z" transform="translate(-11.9 -56.59)" fill="#fff"/><path d="M528,346.58H508v-3.21h23.69v40H528Zm-2.93-16.9a3.92,3.92,0,1,1,3.92,4A3.8,3.8,0,0,1,525.11,329.68Z" transform="translate(-11.9 -56.59)" fill="#fff"/><path d="M557.5,373.39c0-8.95,9-13.18,30.64-15.09-.07-6.58-2.73-12.69-11.88-12.69-6,0-11.86,3.1-15.12,5.43l-1.71-2.72c3.19-2.3,10.13-5.95,17.26-5.95,10.71,0,15.15,6.88,15.15,15.43v25.53H588.7l-.4-6h-.19c-4.59,3.68-10.78,7-16.68,7C564.28,384.32,557.5,380.87,557.5,373.39Zm30.64.52V361.12c-20.34,1.82-26.85,5.66-26.85,12.07,0,5.73,5.37,7.92,10.76,7.92C577.17,381.11,582.51,378.65,588.14,373.91Z" transform="translate(-11.9 -56.59)" fill="#fff"/><path d="M619.77,378.89c0-3.43,2.39-5.44,5-5.44s5,2,5,5.44-2.39,5.43-5,5.43S619.77,382.34,619.77,378.89Z" transform="translate(-11.9 -56.59)" fill="#fff"/><path d="M657.34,373.39c0-8.95,9-13.18,30.64-15.09-.06-6.58-2.73-12.69-11.88-12.69-6,0-11.86,3.1-15.12,5.43l-1.71-2.72c3.19-2.3,10.13-5.95,17.27-5.95,10.7,0,15.14,6.88,15.14,15.43v25.53h-3.14l-.4-6H688c-4.59,3.68-10.78,7-16.68,7C664.13,384.32,657.34,380.87,657.34,373.39Zm30.64.52V361.12c-20.33,1.82-26.85,5.66-26.85,12.07,0,5.73,5.37,7.92,10.76,7.92C677,381.11,682.35,378.65,688,373.91Z" transform="translate(-11.9 -56.59)" fill="#fff"/><path d="M708.4,343.37h3.12l.4,5.77h.19c4-3.88,9.73-6.77,14.94-6.77,11.27,0,16.91,8,16.91,20.4,0,13.54-8.71,21.55-18.69,21.55-3.81,0-9.19-2.09-13.22-5.66h-.16l.21,8.14v14.61h-3.7Zm31.7,19.4c0-9.81-3.87-17.12-13.64-17.12-4.19,0-9.38,2.32-14.36,7.33v22.19c4.65,4.26,9.86,5.87,13,5.87C733.81,381,740.1,373.6,740.1,362.77Z" transform="translate(-11.9 -56.59)" fill="#fff"/><path d="M758.33,343.37h3.11l.4,5.77H762c4-3.88,9.73-6.77,15-6.77,11.26,0,16.9,8,16.9,20.4,0,13.54-8.71,21.55-18.69,21.55-3.8,0-9.19-2.09-13.21-5.66h-.17l.21,8.14v14.61h-3.69ZM790,362.77c0-9.81-3.87-17.12-13.64-17.12C772.2,345.65,767,348,762,353v22.19c4.65,4.26,9.87,5.87,13,5.87C783.73,381,790,373.6,790,362.77Z" transform="translate(-11.9 -56.59)" fill="#fff"/></g></g></svg>